<?xml version="1.0" encoding="UTF-8"?>
<svg xmlns="http://www.w3.org/2000/svg" xmlns:xlink="http://www.w3.org/1999/xlink" height="65.2" preserveAspectRatio="xMidYMid meet" version="1.0" viewBox="4.9 2.6 89.4 65.2" width="89.4" zoomAndPan="magnify"><g><g id="change1_18"><path d="M5.1,4.7c0.6,0.5,1.2,1.1,1.8,1.6c0.2,0.2,0.6,0.3,0.9,0C8,6.1,8,5.7,7.8,5.5C7.2,4.9,6.6,4.4,6,3.8 c-0.2-0.2-0.6-0.3-0.9,0C4.9,4.1,4.9,4.5,5.1,4.7L5.1,4.7z" fill="#E3AFD0"/></g></g><g><g id="change1_13"><path d="M22.2,8.8c0.8-1.1,1.6-2.3,2.4-3.4c0.2-0.3,0.1-0.7-0.2-0.9c-0.3-0.2-0.7-0.1-0.9,0.2 c-0.8,1.1-1.6,2.3-2.4,3.4C20.9,8.4,21,8.9,21.3,9C21.6,9.2,22,9.1,22.2,8.8L22.2,8.8z" fill="#E3AFD0"/></g></g><g><g id="change1_3"><path d="M13.4,14.1c0.6,1,1.3,1.9,1.9,2.9c0.2,0.3,0.6,0.4,0.9,0.2c0.3-0.2,0.4-0.6,0.2-0.9 c-0.6-1-1.3-1.9-1.9-2.9c-0.2-0.3-0.6-0.4-0.9-0.2C13.4,13.4,13.2,13.8,13.4,14.1L13.4,14.1z" fill="#E3AFD0"/></g></g><g><g id="change1_11"><path d="M32.4,8.3c1.3,1,2.5,2.1,3.6,3.4c0.2,0.2,0.7,0.2,0.9,0c0.2-0.3,0.2-0.6,0-0.9c-1.1-1.2-2.3-2.3-3.6-3.4 c-0.3-0.2-0.6-0.3-0.9,0C32.2,7.6,32.2,8.1,32.4,8.3L32.4,8.3z" fill="#E3AFD0"/></g></g><g><g id="change1_7"><path d="M49,8.8c0.6-1,1.3-2,1.9-3.1C51.1,5.5,51,5,50.7,4.9c-0.3-0.2-0.7-0.1-0.9,0.2c-0.6,1-1.3,2-1.9,3.1 c-0.2,0.3-0.1,0.7,0.2,0.9C48.5,9.2,48.8,9.1,49,8.8L49,8.8z" fill="#E3AFD0"/></g></g><g><g id="change1_1"><path d="M59.4,7.1c0.8,0.6,1.6,1.1,2.5,1.7c0.3,0.2,0.7,0.1,0.9-0.2c0.2-0.3,0.1-0.7-0.2-0.9 C61.7,7.2,60.8,6.6,60,6c-0.3-0.2-0.7-0.1-0.9,0.2C59,6.6,59.1,6.9,59.4,7.1L59.4,7.1z" fill="#E3AFD0"/></g></g><g><g id="change1_4"><path d="M42.7,19.8c0.8,1,1.6,2.1,2.4,3.1c0.1,0.1,0.2,0.2,0.4,0.3c0.1,0,0.3,0,0.5-0.1c0.3-0.2,0.4-0.6,0.2-0.9 c-0.8-1-1.6-2.1-2.4-3.1c-0.1-0.1-0.2-0.2-0.4-0.3c-0.1,0-0.3,0-0.5,0.1C42.6,19.1,42.5,19.5,42.7,19.8L42.7,19.8z" fill="#E3AFD0"/></g></g><g><g id="change1_2"><path d="M57.2,18.9c1-1.2,1.9-2.3,2.9-3.5c0.2-0.3,0.3-0.6,0-0.9c-0.2-0.2-0.7-0.3-0.9,0c-1,1.2-1.9,2.3-2.9,3.5 c-0.2,0.3-0.3,0.6,0,0.9C56.5,19.1,56.9,19.2,57.2,18.9L57.2,18.9z" fill="#E3AFD0"/></g></g><g><g id="change1_5"><path d="M73.4,7.7c0.9-1,1.7-2.1,2.4-3.3c0.2-0.3,0.1-0.7-0.2-0.9c-0.3-0.2-0.7-0.1-0.9,0.2 c-0.3,0.5-0.7,1.1-1.1,1.6c-0.4,0.6-0.7,0.9-1.1,1.4c-0.2,0.3-0.3,0.6,0,0.9C72.7,7.9,73.2,8,73.4,7.7L73.4,7.7z" fill="#E3AFD0"/></g></g><g><g id="change1_17"><path d="M72.3,15.6c0.1,0.1,0.2,0.1,0.3,0.2c0,0,0.1,0.1,0.1,0.1c0,0,0.1,0,0.1,0.1c0,0-0.1-0.1,0,0 c0.2,0.1,0.4,0.3,0.5,0.5c0.2,0.2,0.3,0.3,0.5,0.5c0,0,0.1,0.1,0.1,0.1c0,0,0,0,0.1,0.1c0.1,0.1-0.1-0.1,0,0 c0.1,0.1,0.1,0.2,0.2,0.3c0.1,0.1,0.2,0.2,0.4,0.3c0.1,0,0.3,0,0.5-0.1c0.3-0.2,0.4-0.6,0.2-0.9c-0.6-0.9-1.4-1.6-2.3-2.2 c-0.3-0.2-0.7-0.1-0.9,0.2C71.9,15,72,15.4,72.3,15.6L72.3,15.6z" fill="#E3AFD0"/></g></g><g><g id="change1_6"><path d="M88.2,7.5c0.2-0.4,0.5-0.8,0.7-1.1c0,0,0,0,0-0.1c0.1-0.1,0,0,0,0c0,0,0.1-0.1,0.1-0.1 c0.1-0.1,0.1-0.2,0.2-0.3c0.2-0.2,0.3-0.4,0.5-0.5c0.2-0.2,0.3-0.7,0-0.9c-0.2-0.2-0.6-0.3-0.9,0c-0.7,0.7-1.3,1.5-1.8,2.3 c-0.2,0.3-0.1,0.7,0.2,0.9C87.6,7.9,88,7.8,88.2,7.5L88.2,7.5z" fill="#E3AFD0"/></g></g><g><g id="change1_14"><path d="M87,14.4c0.5,0.7,1,1.5,1.5,2.2c0.2,0.3,0.6,0.4,0.9,0.2c0.3-0.2,0.4-0.6,0.2-0.9c-0.5-0.7-1-1.5-1.5-2.2 c-0.2-0.3-0.6-0.4-0.9-0.2C86.9,13.7,86.8,14.1,87,14.4L87,14.4z" fill="#E3AFD0"/></g></g><g><g id="change1_9"><path d="M28.8,21c-0.7,1.3-1.3,2.7-1.8,4.2c-0.1,0.3,0.1,0.7,0.4,0.8c0.3,0.1,0.7-0.1,0.8-0.4 c0.5-1.4,1-2.6,1.7-3.9c0.2-0.3,0.1-0.7-0.2-0.9C29.3,20.6,28.9,20.7,28.8,21L28.8,21z" fill="#E3AFD0"/></g></g><g><g id="change1_16"><path d="M7,23.4c0.9,1.1,1.8,2.3,2.7,3.4c0.2,0.3,0.7,0.2,0.9,0c0.2-0.3,0.2-0.6,0-0.9c-0.9-1.1-1.8-2.3-2.7-3.4 c-0.2-0.3-0.7-0.2-0.9,0C6.8,22.8,6.8,23.1,7,23.4L7,23.4z" fill="#E3AFD0"/></g></g><g><g id="change1_10"><path d="M18.2,27.3c-0.5,1.3-1,2.7-1.4,4c-0.1,0.3,0.1,0.7,0.4,0.8c0.4,0.1,0.7-0.1,0.8-0.4c0.5-1.3,1-2.7,1.4-4 c0.1-0.3-0.1-0.7-0.4-0.8C18.6,26.8,18.3,27,18.2,27.3L18.2,27.3z" fill="#E3AFD0"/></g></g><g><g id="change2_11"><path d="M8.8,17.8c1.6,0,1.6-2.5,0-2.5C7.2,15.3,7.2,17.8,8.8,17.8L8.8,17.8z" fill="#B9DAF2"/></g></g><g><g id="change2_2"><path d="M25.5,14.1c0,0.1,0,0.1,0,0.2c0,0.2,0,0.3,0.1,0.5c0.1,0.2,0.1,0.3,0.3,0.4c0.1,0.1,0.2,0.2,0.4,0.3 c0.1,0.1,0.3,0.1,0.5,0.1c0.1,0,0.2,0,0.3,0c0.2-0.1,0.4-0.2,0.6-0.3c0.1-0.1,0.1-0.2,0.2-0.3c0.1-0.2,0.2-0.4,0.2-0.6 c0-0.1,0-0.1,0-0.2c0-0.2,0-0.3-0.1-0.5c-0.1-0.2-0.1-0.3-0.3-0.4c-0.1-0.1-0.2-0.2-0.4-0.3c-0.1-0.1-0.3-0.1-0.5-0.1 c-0.1,0-0.2,0-0.3,0c-0.2,0.1-0.4,0.2-0.6,0.3c-0.1,0.1-0.1,0.2-0.2,0.3C25.6,13.7,25.5,13.9,25.5,14.1L25.5,14.1z" fill="#B9DAF2"/></g></g><g><g id="change2_3"><path d="M15.4,7.2c1.6,0,1.6-2.5,0-2.5C13.7,4.7,13.7,7.2,15.4,7.2L15.4,7.2z" fill="#B9DAF2"/></g></g><g><g id="change2_7"><path d="M50,14.3c-0.1,0.1-0.1,0.2-0.2,0.3c-0.1,0.1-0.1,0.3-0.1,0.5c0,0.2,0,0.3,0,0.5c0,0.2,0.1,0.3,0.2,0.4 c0.1,0.1,0.2,0.2,0.4,0.3c0.1,0,0.2,0.1,0.3,0.1c0.2,0.1,0.4,0.1,0.7,0c0.1,0,0.2-0.1,0.3-0.1c0.2-0.1,0.3-0.3,0.4-0.4 c0.1-0.1,0.1-0.2,0.2-0.3c0.1-0.1,0.1-0.3,0.1-0.5c0-0.2,0-0.3,0-0.5c0-0.2-0.1-0.3-0.2-0.4c-0.1-0.1-0.2-0.2-0.4-0.3 c-0.1,0-0.2-0.1-0.3-0.1c-0.2-0.1-0.4-0.1-0.7,0c-0.1,0-0.2,0.1-0.3,0.1C50.2,13.9,50.1,14.1,50,14.3L50,14.3z" fill="#B9DAF2"/></g></g><g><g id="change2_1"><path d="M67,21.3c-0.1,0.1-0.2,0.2-0.3,0.3c-0.1,0.1-0.2,0.2-0.3,0.4c-0.1,0.1-0.1,0.3-0.1,0.5 c0,0.2,0,0.3,0.1,0.5c0.1,0.2,0.1,0.3,0.3,0.4c0.1,0.1,0.2,0.1,0.3,0.2c0.2,0.1,0.4,0.2,0.6,0.2c0.1,0,0.2,0,0.3,0 c0.2-0.1,0.4-0.2,0.6-0.3c0.1-0.1,0.2-0.2,0.3-0.3c0.1-0.1,0.2-0.2,0.3-0.4c0.1-0.1,0.1-0.3,0.1-0.5c0-0.2,0-0.3-0.1-0.5 c-0.1-0.2-0.1-0.3-0.3-0.4c-0.1-0.1-0.2-0.1-0.3-0.2c-0.2-0.1-0.4-0.2-0.6-0.2c-0.1,0-0.2,0-0.3,0C67.4,21,67.2,21.1,67,21.3 L67,21.3z" fill="#B9DAF2"/></g></g><g><g id="change2_8"><path d="M80,8.9C80,8.9,79.9,9,79.9,9c-0.1,0.1-0.2,0.2-0.3,0.4c-0.1,0.1-0.1,0.3-0.1,0.5c0,0.2,0,0.3,0.1,0.5 c0.1,0.2,0.1,0.3,0.3,0.4c0.1,0.1,0.2,0.1,0.3,0.2c0.2,0.1,0.4,0.2,0.6,0.2c0.1,0,0.2,0,0.3,0c0.2-0.1,0.4-0.2,0.6-0.3 c0.1-0.1,0.1-0.1,0.2-0.2c0.1-0.1,0.2-0.2,0.3-0.4c0.1-0.1,0.1-0.3,0.1-0.5c0-0.2,0-0.3-0.1-0.5C82,9.1,81.9,9,81.8,8.9 c-0.1-0.1-0.2-0.1-0.3-0.2c-0.2-0.1-0.4-0.2-0.6-0.2c-0.1,0-0.2,0-0.3,0C80.4,8.6,80.2,8.7,80,8.9L80,8.9z" fill="#B9DAF2"/></g></g><g><g id="change2_6"><path d="M86.8,30.6c-0.1,0.1-0.1,0.1-0.2,0.2c-0.1,0.1-0.2,0.2-0.3,0.4c-0.1,0.1-0.1,0.3-0.1,0.5 c0,0.2,0,0.3,0.1,0.5c0.1,0.2,0.1,0.3,0.3,0.4c0.1,0.1,0.2,0.1,0.3,0.2c0.2,0.1,0.4,0.2,0.6,0.2c0.1,0,0.2,0,0.3,0 c0.2-0.1,0.4-0.2,0.6-0.3c0.1-0.1,0.1-0.1,0.2-0.2c0.1-0.1,0.2-0.2,0.3-0.4c0.1-0.1,0.1-0.3,0.1-0.5c0-0.2,0-0.3-0.1-0.5 c-0.1-0.2-0.1-0.3-0.3-0.4c-0.1-0.1-0.2-0.1-0.3-0.2c-0.2-0.1-0.4-0.2-0.6-0.2c-0.1,0-0.2,0-0.3,0C87.1,30.3,87,30.4,86.8,30.6 L86.8,30.6z" fill="#B9DAF2"/></g></g><g><g id="change2_10"><path d="M48.2,52.6c-0.1,0.1-0.1,0.1-0.2,0.2c-0.1,0.1-0.2,0.2-0.3,0.4c-0.1,0.1-0.1,0.3-0.1,0.5 c0,0.2,0,0.3,0.1,0.5c0.1,0.2,0.1,0.3,0.3,0.4c0.1,0.1,0.2,0.1,0.3,0.2c0.2,0.1,0.4,0.2,0.6,0.2c0.1,0,0.2,0,0.3,0 c0.2-0.1,0.4-0.2,0.6-0.3c0.1-0.1,0.1-0.1,0.2-0.2c0.1-0.1,0.2-0.2,0.3-0.4c0.1-0.1,0.1-0.3,0.1-0.5c0-0.2,0-0.3-0.1-0.5 c-0.1-0.2-0.1-0.3-0.3-0.4c-0.1-0.1-0.2-0.1-0.3-0.2c-0.2-0.1-0.4-0.2-0.6-0.2c-0.1,0-0.2,0-0.3,0C48.6,52.3,48.4,52.4,48.2,52.6 L48.2,52.6z" fill="#B9DAF2"/></g></g><g><g id="change2_12"><path d="M25.5,44.6c1.6,0,1.6-2.5,0-2.5C23.9,42.1,23.9,44.6,25.5,44.6L25.5,44.6z" fill="#B9DAF2"/></g></g><g><g id="change2_9"><path d="M75.3,40.4c1.6,0,1.6-2.5,0-2.5C73.7,37.9,73.7,40.4,75.3,40.4L75.3,40.4z" fill="#B9DAF2"/></g></g><g><g id="change2_5"><path d="M19.1,57.2c0,0.1,0,0.1,0,0.2c0,0.2,0,0.3,0.1,0.5c0.1,0.2,0.1,0.3,0.3,0.4c0.1,0.1,0.2,0.2,0.4,0.3 c0.1,0.1,0.3,0.1,0.5,0.1c0.1,0,0.2,0,0.3,0c0.2-0.1,0.4-0.2,0.6-0.3c0.1-0.1,0.1-0.2,0.2-0.3c0.1-0.2,0.2-0.4,0.2-0.6 c0-0.1,0-0.1,0-0.2c0-0.2,0-0.3-0.1-0.5c-0.1-0.2-0.1-0.3-0.3-0.4c-0.1-0.1-0.2-0.2-0.4-0.3c-0.1-0.1-0.3-0.1-0.5-0.1 c-0.1,0-0.2,0-0.3,0c-0.2,0.1-0.4,0.2-0.6,0.3c-0.1,0.1-0.1,0.2-0.2,0.3C19.1,56.7,19.1,57,19.1,57.2L19.1,57.2z" fill="#B9DAF2"/></g></g><g><g id="change2_4"><path d="M40.8,2.6c-0.1,0-0.1,0-0.2,0c-0.2,0-0.3,0-0.5,0.1c-0.2,0.1-0.3,0.1-0.4,0.3c-0.1,0.1-0.2,0.2-0.3,0.4 c-0.1,0.1-0.1,0.3-0.1,0.5c0,0.1,0,0.2,0,0.3c0.1,0.2,0.2,0.4,0.3,0.6c0.1,0.1,0.2,0.1,0.3,0.2c0.2,0.1,0.4,0.2,0.6,0.2 c0.1,0,0.1,0,0.2,0c0.2,0,0.3,0,0.5-0.1c0.2-0.1,0.3-0.1,0.4-0.3c0.1-0.1,0.2-0.2,0.3-0.4C42,4.2,42,4,42,3.8c0-0.1,0-0.2,0-0.3 c-0.1-0.2-0.2-0.4-0.3-0.6c-0.1-0.1-0.2-0.1-0.3-0.2C41.2,2.6,41,2.6,40.8,2.6L40.8,2.6z" fill="#B9DAF2"/></g></g><g><g id="change3_9"><path d="M35.8,20.4c0.3-0.1,0.4-0.5,0.2-0.7c-0.2-0.2-0.6-0.2-0.7,0c-0.2,0.3,0,0.6,0.2,0.8 c0.2,0.2,0.4,0.5,0.6,0.8c0.8,1,1.5,2.1,2.1,3.3c0.2,0.4,0.9,0,0.6-0.4c-0.4-0.8-0.8-1.5-1.3-2.2c-0.2-0.4-0.5-0.7-0.8-1.1 c-0.1-0.2-0.3-0.4-0.4-0.5c-0.1-0.1-0.1-0.2-0.2-0.3c0,0-0.1-0.2-0.1-0.2c0,0.1,0,0.1-0.1,0.2c0,0,0,0,0,0c-0.1,0-0.2,0.1-0.3,0.1 c-0.1,0-0.1-0.1-0.2-0.1c0-0.1,0-0.1-0.1-0.2c0,0,0,0,0,0c0-0.1,0-0.1,0.1-0.2c0,0,0,0,0,0c0.1-0.1,0.1-0.1,0.2-0.2c0,0,0,0,0,0 C35.2,19.8,35.4,20.5,35.8,20.4L35.8,20.4z" fill="#D1CAE5"/></g></g><g><g id="change3_10"><path d="M81.7,16.5c0.3,1.2,0.5,2.5,0.8,3.7c0.1,0.5,0.8,0.3,0.7-0.2c-0.3-1.2-0.5-2.5-0.8-3.7 C82.3,15.8,81.6,16,81.7,16.5L81.7,16.5z" fill="#D1CAE5"/></g></g><g><g id="change3_3"><path d="M67.1,14.9c-0.1,1.1,0.1,2.3,0.5,3.3c0.1,0.2,0.3,0.3,0.5,0.3c0.2,0,0.3-0.3,0.3-0.5c-0.4-1-0.5-2-0.4-3.1 c0-0.2-0.2-0.4-0.4-0.4C67.3,14.5,67.1,14.7,67.1,14.9L67.1,14.9z" fill="#D1CAE5"/></g></g><g><g id="change3_2"><path d="M53.5,27.5c0.2,1.7,0.4,3.4,0.3,5c0,0.5,0.7,0.5,0.8,0c0-1.8-0.1-3.5-0.4-5.2c0-0.2-0.3-0.3-0.5-0.3 C53.6,27.1,53.5,27.4,53.5,27.5L53.5,27.5z" fill="#D1CAE5"/></g></g><g><g id="change3_6"><path d="M64.9,5.5c0.2,1.5,0.5,2.9,0.9,4.3c0.1,0.5,0.9,0.3,0.7-0.2c-0.4-1.4-0.7-2.9-0.9-4.3 c0-0.2-0.3-0.3-0.5-0.3C64.9,5.1,64.9,5.3,64.9,5.5L64.9,5.5z" fill="#D1CAE5"/></g></g><g><g id="change3_7"><path d="M42.7,9.2c-0.3,1.7-0.6,3.4-0.7,5.1c0,0.5,0.7,0.5,0.8,0c0.1-1.6,0.4-3.3,0.7-4.9 C43.5,8.9,42.8,8.7,42.7,9.2L42.7,9.2z" fill="#D1CAE5"/></g></g><g><g id="change3_4"><path d="M54.4,60.9c0.7,0.9,1.5,1.9,2.2,2.8c0.1,0.2,0.4,0.1,0.5,0c0.2-0.2,0.1-0.4,0-0.5 c-0.7-0.9-1.5-1.9-2.2-2.8c-0.1-0.2-0.4-0.1-0.5,0C54.2,60.5,54.3,60.7,54.4,60.9L54.4,60.9z" fill="#D1CAE5"/></g></g><g><g id="change3_1"><path d="M83.3,39.5c0.1-0.2,0.1-0.5-0.2-0.6c-0.2-0.1-0.4-0.1-0.6,0.1c-0.3,0.3-0.1,0.8,0.1,1.1 c0.2,0.7,0.5,1.5,0.8,2.2c0.1,0.2,0.4,0.2,0.5,0.1c0.2-0.1,0.2-0.3,0.1-0.5c-0.2-0.4-0.4-0.9-0.5-1.3c-0.1-0.2-0.2-0.4-0.2-0.7 C83.3,39.8,83.2,39.7,83.3,39.5c-0.1,0-0.1,0-0.1-0.1c0,0,0-0.1,0-0.1c0,0.1,0,0.1,0,0.2c-0.1,0-0.1,0.1-0.2,0.1 c-0.1,0-0.2,0-0.3-0.1c0-0.1,0-0.1-0.1-0.2c0,0,0,0,0,0c0-0.1,0-0.1,0.1-0.2c0,0,0,0,0,0c-0.1,0.2,0,0.4,0.1,0.5 C82.9,39.8,83.2,39.7,83.3,39.5L83.3,39.5z" fill="#D1CAE5"/></g></g><g><g id="change3_8"><path d="M90.8,34.4c0.5,0.8,1,1.7,1.5,2.5c0.1,0.2,0.3,0.2,0.5,0.1c0.2-0.1,0.2-0.3,0.1-0.5 c-0.5-0.8-1-1.7-1.5-2.5c-0.1-0.2-0.3-0.2-0.5-0.1C90.8,34,90.7,34.3,90.8,34.4L90.8,34.4z" fill="#D1CAE5"/></g></g><g><g id="change3_5"><path d="M31.1,46c0.3,0.8,0.6,1.6,0.9,2.4c0.1,0.2,0.3,0.3,0.5,0.3c0.2-0.1,0.3-0.3,0.3-0.5 c-0.3-0.8-0.6-1.6-0.9-2.4c-0.1-0.2-0.3-0.3-0.5-0.3C31.2,45.6,31,45.8,31.1,46L31.1,46z" fill="#D1CAE5"/></g></g><g><g id="change3_11"><path d="M26.3,59.9c-0.8,0.2-0.6,1.2-0.3,1.8c0.4,0.9,0.8,1.8,1.2,2.6c0.1,0.2,0.3,0.2,0.5,0.1 c0.2-0.1,0.2-0.3,0.1-0.5c-0.3-0.7-0.7-1.4-1-2.2c-0.1-0.3-0.3-0.5-0.4-0.8c0-0.1,0-0.1,0-0.1c0,0,0-0.2,0-0.1c0-0.1,0,0,0,0 c0,0,0,0,0,0c0,0,0,0,0,0C27,60.5,26.8,59.8,26.3,59.9L26.3,59.9z" fill="#D1CAE5"/></g></g><g><g id="change4_4"><path d="M60.4,22.8c-0.1,0-0.1,0.1-0.2,0.1c0,0-0.1,0.1-0.1,0.1c0,0,0,0.1,0,0.1c0,0.1,0,0.1,0,0.1 c0,0,0,0.1,0.1,0.1c0,0,0.1,0,0.1,0.1c0.1,0,0.1,0.1,0.2,0.1c0,0,0.1,0,0.1,0c0.1,0,0.1,0,0.2-0.1c0.1,0,0.1-0.1,0.2-0.1 c0,0,0.1-0.1,0.1-0.1c0,0,0-0.1,0-0.1c0-0.1,0-0.1,0-0.1c0,0,0-0.1-0.1-0.1c0,0-0.1,0-0.1-0.1c-0.1,0-0.1-0.1-0.2-0.1 c0,0-0.1,0-0.1,0C60.5,22.7,60.4,22.8,60.4,22.8L60.4,22.8z" fill="#B7DDB8"/></g></g><g><g id="change4_7"><path d="M55,9.9C55,9.9,55,9.9,55,9.9C55,9.9,55,9.8,55,9.9C55,9.8,55,9.8,55,9.9C55,9.8,55.1,9.8,55,9.9 C55.1,9.8,55.1,9.8,55,9.9c0.1-0.1,0.1-0.1,0.2-0.1c0,0,0,0,0,0c0,0,0.1,0,0.1,0c0,0,0,0-0.1,0c0,0,0.1,0,0.1,0c0,0,0,0-0.1,0 c0,0,0.1,0,0.1,0c0,0,0,0-0.1,0c0,0,0.1,0,0.1,0.1c0,0,0,0,0,0c0,0,0,0.1,0.1,0.1c0,0,0,0,0,0c0,0,0,0.1,0,0.1c0,0,0,0,0,0 c0,0,0,0.1,0,0.1c0,0,0,0,0,0c0,0,0,0.1,0,0.1c0,0,0,0,0,0c0,0,0-0.1,0-0.1c0,0,0-0.1,0-0.1c0,0-0.1-0.1-0.1-0.1 c0,0-0.1-0.1-0.1-0.1c0,0-0.1,0-0.1,0c-0.1,0-0.1,0-0.2,0.1c0,0-0.1,0-0.1,0.1c0,0-0.1,0.1-0.1,0.2c0,0,0,0,0,0c0,0,0,0.1,0,0.1 c0,0,0,0,0,0c0,0,0,0.1,0,0.1c0,0,0,0.1,0,0.1c0,0,0,0,0,0c0,0,0.1,0.1,0.1,0.1c0,0,0,0,0,0c0,0,0.1,0.1,0.1,0.1c0,0,0.1,0,0.1,0 c0,0,0,0,0,0c0.1,0,0.2,0,0.3,0c0,0,0.1,0,0.1-0.1c0,0,0.1,0,0.1-0.1c0,0,0,0,0,0c0,0,0-0.1,0.1-0.1c0,0,0,0,0,0c0,0,0-0.1,0-0.1 c0,0,0-0.1,0-0.1c0,0,0-0.1-0.1-0.1c0,0-0.1-0.1-0.1-0.1c0,0-0.1,0-0.1,0c-0.1,0-0.1,0-0.2,0c0,0-0.1,0-0.1,0 C55.1,9.8,55,9.8,55,9.9L55,9.9z" fill="#B7DDB8"/></g></g><g><g id="change4_5"><path d="M75.4,9.8c0-0.1,0-0.1,0-0.2c0-0.1,0-0.1,0-0.1c0,0,0-0.1-0.1-0.1c0,0-0.1-0.1-0.1-0.1c0,0-0.1,0-0.1,0 c0,0-0.1,0-0.1,0c-0.1,0-0.1,0.1-0.2,0.1c0,0,0,0.1-0.1,0.1c0,0.1-0.1,0.1-0.1,0.2c0,0.1,0,0.1,0,0.2c0,0.1,0,0.1,0,0.1 c0,0,0,0.1,0.1,0.1c0,0,0.1,0.1,0.1,0.1c0,0,0.1,0,0.1,0c0,0,0.1,0,0.1,0c0.1,0,0.1,0,0.2-0.1c0,0,0-0.1,0.1-0.1 C75.3,9.9,75.4,9.8,75.4,9.8L75.4,9.8z" fill="#B7DDB8"/></g></g><g><g id="change4_14"><path d="M34.4,28.1C34.4,28.1,34.4,28,34.4,28.1C34.4,28,34.4,28,34.4,28.1C34.4,28,34.4,28,34.4,28.1 C34.4,28,34.4,28,34.4,28.1c-0.1-0.1-0.1-0.1-0.2-0.2c0,0,0,0,0,0c0,0,0,0,0,0c0,0,0,0-0.1,0c0,0,0,0,0,0c0,0,0,0-0.1,0 c0,0,0,0-0.1,0c0,0,0,0,0,0c0,0,0,0,0,0c0,0-0.1,0-0.1,0c0,0,0,0,0,0c0,0-0.1,0-0.1,0c0,0,0,0,0,0c0,0,0,0,0,0c0,0,0,0,0,0 c0,0-0.1,0-0.1,0.1c0,0,0,0,0,0c0,0,0,0,0,0c0,0,0,0.1-0.1,0.1c0,0,0,0,0,0c0,0,0,0,0,0.1c0,0,0,0,0,0.1c0,0,0,0,0,0 c0,0,0,0,0,0.1c0,0,0,0,0,0.1c0,0,0,0,0,0c0,0,0,0,0,0c0,0,0,0.1,0,0.1c0,0,0,0,0,0c0,0,0,0,0,0c0,0,0,0.1,0,0.1c0,0,0,0,0,0 c0,0,0,0,0,0c0,0,0,0.1,0.1,0.1c0,0,0,0,0,0c0,0,0,0,0,0c0,0,0.1,0,0.1,0.1c0,0,0,0,0,0c0,0,0.1,0,0.1,0c0,0,0,0,0,0c0,0,0,0,0,0 c0,0,0,0,0,0c0,0,0.1,0,0.1,0c0,0,0,0,0,0c0,0,0,0,0,0c0,0,0.1,0,0.1,0c0,0,0,0,0,0c0,0,0,0,0,0c0,0,0.1,0,0.1,0c0,0,0,0,0,0 c0,0,0,0,0,0c0,0,0.1,0,0.1-0.1c0,0,0,0,0,0c0,0,0,0,0,0c0,0,0,0,0,0c0,0,0,0,0,0c0,0,0,0,0,0c0,0,0,0,0,0c0,0,0-0.1,0-0.1 c0,0,0-0.1,0-0.1C34.5,28.2,34.5,28.2,34.4,28.1c0,0-0.1,0-0.1,0c0,0-0.1,0-0.1,0c-0.1,0-0.1,0-0.2,0c0,0-0.1,0-0.1,0 c-0.1,0-0.1,0.1-0.1,0.1c0,0,0,0,0,0c0,0,0-0.1,0.1-0.1c0,0,0,0,0,0c0,0,0.1,0,0.1-0.1c0,0,0,0,0,0c0,0,0.1,0,0.1,0c0,0,0,0,0,0 c0,0,0.1,0,0.1,0c0,0,0,0,0,0c0,0,0.1,0,0.1,0c0,0,0,0,0,0c0,0,0.1,0,0.1,0c0,0,0,0,0,0c0,0,0.1,0,0.1,0.1c0,0,0,0,0,0 c0,0,0,0.1,0.1,0.1c0,0,0,0,0,0c0,0,0,0.1,0,0.1c0,0,0,0,0,0c0,0,0,0.1,0,0.1c0,0,0,0,0,0c0,0,0,0.1,0,0.1c0,0,0,0,0,0 c0,0,0,0.1,0,0.1c0,0,0,0,0,0c0,0,0,0.1-0.1,0.1c0,0,0,0,0,0c0,0-0.1,0-0.1,0.1c0,0,0,0,0,0c0,0-0.1,0-0.1,0c0,0,0,0,0,0 c0,0-0.1,0-0.1,0c0,0,0,0,0,0c0,0-0.1,0-0.1,0c0,0,0,0,0,0c0,0-0.1,0-0.1,0c0,0,0,0,0,0c0,0-0.1,0-0.1-0.1c0,0,0,0,0,0 c0,0,0-0.1-0.1-0.1c0,0,0,0,0,0c0,0,0.1,0.1,0.1,0.1c0,0,0.1,0.1,0.1,0.1c0,0,0.1,0,0.1,0c0,0,0.1,0,0.1,0c0,0,0.1,0,0.1-0.1 c0,0,0.1-0.1,0.1-0.2c0,0,0-0.1,0-0.1C34.5,28.2,34.5,28.2,34.4,28.1L34.4,28.1z" fill="#B7DDB8"/></g></g><g><g id="change4_1"><path d="M32.1,14.7c-0.1,0-0.2,0-0.3,0c-0.1,0-0.1,0-0.1,0c0,0-0.1,0-0.1,0.1c0,0-0.1,0.1-0.1,0.1c0,0,0,0.1,0,0.1 c0,0,0,0.1,0,0.1c0,0.1,0,0.1,0.1,0.2c0,0,0.1,0,0.1,0.1c0.1,0,0.1,0.1,0.2,0.1c0.1,0,0.2,0,0.3,0c0.1,0,0.1,0,0.1,0 c0,0,0.1,0,0.1-0.1c0,0,0.1-0.1,0.1-0.1c0,0,0-0.1,0-0.1c0,0,0-0.1,0-0.1c0-0.1,0-0.1-0.1-0.2c0,0-0.1,0-0.1-0.1 C32.2,14.7,32.1,14.7,32.1,14.7L32.1,14.7z" fill="#B7DDB8"/></g></g><g><g id="change4_15"><path d="M18.9,21.3c0.1,0.1,0.1,0.1,0.2,0.2c0,0,0.1,0.1,0.1,0.1c0,0,0.1,0,0.1,0c0.1,0,0.1,0,0.1,0 c0,0,0.1,0,0.1-0.1c0,0,0-0.1,0.1-0.1c0-0.1,0.1-0.1,0.1-0.2c0,0,0-0.1,0-0.1c0-0.1-0.1-0.1-0.1-0.2c-0.1-0.1-0.1-0.1-0.2-0.2 c0,0-0.1-0.1-0.1-0.1c0,0-0.1,0-0.1,0c-0.1,0-0.1,0-0.1,0c0,0-0.1,0-0.1,0.1c0,0,0,0.1-0.1,0.1c0,0.1-0.1,0.1-0.1,0.2 c0,0,0,0.1,0,0.1C18.9,21.2,18.9,21.2,18.9,21.3L18.9,21.3z" fill="#B7DDB8"/></g></g><g><g id="change4_3"><path d="M5.7,11.4c0.5,0,0.5-0.8,0-0.8C5.2,10.7,5.2,11.4,5.7,11.4L5.7,11.4z" fill="#B7DDB8"/></g></g><g><g id="change4_11"><path d="M8.9,36.9c-0.2,0-0.3,0-0.5,0c0.1,0.1,0.2,0.2,0.4,0.3c0,0,0,0,0,0c0,0,0,0.1,0,0.1c0,0,0-0.1,0-0.1 c0,0,0,0.1,0,0.1c0,0,0-0.1,0-0.1c0,0,0,0.1,0,0.1c0,0,0-0.1,0.1-0.1c0,0,0,0.1-0.1,0.1c0,0,0,0,0-0.1C8.9,37,9,36.9,9,36.8 c0-0.1,0-0.1,0-0.1c0,0,0-0.1-0.1-0.1c-0.1-0.1-0.2-0.1-0.3-0.1c-0.1,0-0.2,0-0.3,0.1c-0.1,0.1-0.2,0.2-0.2,0.4c0,0.1,0,0.1,0,0.2 c0,0.1,0,0.2,0,0.2c0,0,0,0.1,0,0.1c0,0,0.1,0.1,0.1,0.1c0,0,0.1,0,0.1,0c0,0,0.1,0,0.1,0c0.2,0,0.3,0,0.5,0c0.1,0,0.1,0,0.1,0 c0,0,0.1,0,0.1-0.1c0,0,0.1-0.1,0.1-0.1c0,0,0-0.1,0-0.1c0-0.1,0-0.2-0.1-0.3c0,0-0.1,0-0.1-0.1C9.1,36.9,9,36.9,8.9,36.9 L8.9,36.9z" fill="#B7DDB8"/></g></g><g><g id="change4_9"><path d="M89.4,20.9c-0.1,0.1-0.2,0.1-0.3,0.2c0,0-0.1,0.1-0.1,0.1c0,0-0.1,0.1-0.1,0.1c0,0,0,0.1,0,0.1 c0,0,0,0.1,0,0.1c0,0,0,0.1,0.1,0.1c0,0,0.1,0.1,0.2,0.1c0,0,0.1,0,0.1,0c0.1,0,0.1,0,0.2-0.1c0.1-0.1,0.2-0.1,0.3-0.2 c0,0,0.1-0.1,0.1-0.1c0,0,0.1-0.1,0.1-0.1c0,0,0-0.1,0-0.1c0,0,0-0.1,0-0.1c0,0,0-0.1-0.1-0.1c0,0-0.1-0.1-0.2-0.1 c0,0-0.1,0-0.1,0C89.5,20.8,89.5,20.8,89.4,20.9L89.4,20.9z" fill="#B7DDB8"/></g></g><g><g id="change4_12"><path d="M93.7,8.3C93.7,8.3,93.7,8.3,93.7,8.3C93.7,8.3,93.7,8.3,93.7,8.3C93.7,8.3,93.7,8.3,93.7,8.3 C93.7,8.3,93.7,8.3,93.7,8.3C93.7,8.3,93.7,8.3,93.7,8.3C93.7,8.3,93.7,8.3,93.7,8.3c0,0-0.1,0-0.1,0C93.6,8.3,93.7,8.3,93.7,8.3 c-0.1,0-0.1,0-0.1,0C93.6,8.3,93.7,8.3,93.7,8.3C93.7,8.3,93.7,8.3,93.7,8.3c-0.1-0.1-0.2-0.1-0.3-0.1c-0.1,0-0.1,0-0.1,0 c0,0-0.1,0-0.1,0.1C93.1,8.4,93,8.5,93,8.6c0,0.1,0,0.2,0.1,0.3c0.1,0.1,0.1,0.1,0.2,0.1c0,0,0.1,0,0.2,0.1c0.1,0,0.1,0,0.2,0 c0.1,0,0.2,0,0.2,0C93.9,9,94,9,94,9c0,0,0,0,0.1,0c0,0,0.1-0.1,0.1-0.1c0,0,0.1-0.1,0.1-0.1c0,0,0-0.1,0-0.1c0,0,0-0.1,0-0.1 c-0.1-0.1-0.1-0.2-0.2-0.2C93.9,8.2,93.8,8.2,93.7,8.3L93.7,8.3z" fill="#B7DDB8"/></g></g><g><g id="change4_18"><path d="M38.5,48.9c-0.2,0-0.4,0-0.6,0c-0.1,0-0.2,0-0.3,0.1c-0.1,0.1-0.1,0.2-0.1,0.3c0,0.1,0,0.2,0.1,0.3 c0.1,0.1,0.2,0.1,0.3,0.1c0.2,0,0.4,0,0.6,0c0.1,0,0.2,0,0.3-0.1c0.1-0.1,0.1-0.2,0.1-0.3c0-0.1,0-0.2-0.1-0.3 C38.7,49,38.6,48.9,38.5,48.9L38.5,48.9z" fill="#B7DDB8"/></g></g><g><g id="change4_13"><path d="M37.5,61.2c-0.2,0.1-0.3,0.2-0.5,0.3c-0.1,0.1-0.1,0.1-0.2,0.2c0,0,0,0.1,0,0.1c0,0,0,0.1,0,0.1 c0.1,0.1,0.1,0.2,0.2,0.2c0.1,0,0.2,0,0.3,0c0.2-0.1,0.3-0.2,0.5-0.3c0.1-0.1,0.1-0.1,0.2-0.2c0,0,0-0.1,0-0.1c0,0,0-0.1,0-0.1 c-0.1-0.1-0.1-0.2-0.2-0.2C37.7,61.1,37.6,61.1,37.5,61.2L37.5,61.2z" fill="#B7DDB8"/></g></g><g><g id="change4_16"><path d="M64.6,48.2c-0.1,0.1-0.2,0.2-0.3,0.3c0,0,0,0.1-0.1,0.1c0,0,0,0.1,0,0.1c0,0,0,0.1,0,0.1 c0,0.1,0,0.1,0,0.1c0,0.1,0.1,0.1,0.1,0.1c0,0,0.1,0,0.1,0c0,0,0.1,0,0.1,0c0.2,0,0.3-0.1,0.5-0.1c0,0,0.1,0,0.1-0.1 c0,0,0.1-0.1,0.1-0.1c0,0,0-0.1,0-0.1c0,0,0-0.1,0-0.1c0-0.1-0.1-0.2-0.2-0.2c0,0-0.1,0-0.1,0c-0.1,0-0.1,0-0.2,0 c-0.2,0-0.3,0.1-0.5,0.1c0.1,0.2,0.2,0.4,0.4,0.6c0.1-0.1,0.2-0.2,0.3-0.3c0,0,0.1-0.1,0.1-0.1c0,0,0-0.1,0-0.1c0-0.1,0-0.1,0-0.1 c0,0,0-0.1-0.1-0.1c-0.1-0.1-0.2-0.1-0.3-0.1c0,0-0.1,0-0.1,0C64.7,48.1,64.6,48.2,64.6,48.2L64.6,48.2z" fill="#B7DDB8"/></g></g><g><g id="change4_6"><path d="M77.8,48.3c-0.3,0.2-0.6,0.4-0.9,0.7c-0.1,0.1-0.1,0.1-0.2,0.2c0,0.1,0,0.2,0,0.3c0.1,0.1,0.1,0.2,0.2,0.2 c0.1,0,0.2,0,0.3,0c0.3-0.2,0.6-0.4,0.9-0.7c0.1-0.1,0.1-0.1,0.2-0.2c0-0.1,0-0.2,0-0.3c-0.1-0.1-0.1-0.2-0.2-0.2 C78,48.3,77.9,48.3,77.8,48.3L77.8,48.3z" fill="#B7DDB8"/></g></g><g><g id="change4_10"><path d="M83.1,32.4C83.1,32.4,83,32.4,83.1,32.4C83.1,32.4,83.1,32.4,83.1,32.4c0,0-0.1,0-0.2,0 C82.9,32.4,83,32.4,83.1,32.4c-0.1,0-0.2,0-0.3-0.1c0,0,0.1,0,0.1,0c-0.1,0-0.1-0.1-0.2-0.1c0,0,0.1,0,0.1,0.1 c-0.1,0-0.1-0.1-0.1-0.1c-0.1-0.1-0.2-0.1-0.3-0.1c-0.1,0-0.2,0-0.3,0.1C82,32.2,82,32.3,82,32.4c0,0,0,0.1,0,0.1 c0,0.1,0.1,0.1,0.1,0.2c0.1,0.2,0.3,0.3,0.5,0.4c0.2,0.1,0.4,0.1,0.6,0c0.1,0,0.2-0.1,0.2-0.2c0-0.1,0.1-0.2,0-0.3 c0-0.1-0.1-0.2-0.2-0.2C83.3,32.4,83.2,32.4,83.1,32.4L83.1,32.4z" fill="#B7DDB8"/></g></g><g><g id="change4_17"><path d="M90.5,41.8c-0.1-0.1-0.1-0.1-0.2-0.2c0,0-0.1-0.1-0.1-0.1c0,0-0.1,0-0.1,0c-0.1,0-0.1,0-0.1,0 c0,0-0.1,0-0.1,0.1c0,0,0,0.1-0.1,0.1c0,0.1-0.1,0.1-0.1,0.2c0,0,0,0.1,0,0.1c0,0.1,0,0.1,0.1,0.2c0.1,0.1,0.1,0.1,0.2,0.2 c0,0,0.1,0.1,0.1,0.1c0,0,0.1,0,0.1,0c0.1,0,0.1,0,0.1,0c0,0,0.1,0,0.1-0.1c0,0,0-0.1,0.1-0.1c0-0.1,0.1-0.1,0.1-0.2 c0,0,0-0.1,0-0.1C90.6,41.9,90.6,41.9,90.5,41.8L90.5,41.8z" fill="#B7DDB8"/></g></g><g><g id="change4_8"><path d="M50.4,67.8c0.1,0,0.1,0,0.2,0c0.1,0,0.1,0,0.1,0c0,0,0.1,0,0.1-0.1c0,0,0.1-0.1,0.1-0.1c0,0,0-0.1,0-0.1 c0,0,0-0.1,0-0.1c0-0.1,0-0.1-0.1-0.2c0,0-0.1,0-0.1-0.1c-0.1,0-0.1-0.1-0.2-0.1c-0.1,0-0.1,0-0.2,0c-0.1,0-0.1,0-0.1,0 c0,0-0.1,0-0.1,0.1c0,0-0.1,0.1-0.1,0.1c0,0,0,0.1,0,0.1c0,0,0,0.1,0,0.1c0,0.1,0,0.1,0.1,0.2c0,0,0.1,0,0.1,0.1 C50.3,67.8,50.3,67.8,50.4,67.8L50.4,67.8z" fill="#B7DDB8"/></g></g><g><g id="change4_2"><path d="M55.8,48.6c-0.2-0.1-0.4-0.1-0.6-0.2c-0.1,0-0.2,0-0.3,0c-0.1,0-0.2,0.1-0.2,0.2c0,0.1,0,0.2,0,0.3 c0.1,0.1,0.1,0.1,0.2,0.2c0.2,0.1,0.4,0.1,0.6,0.2c0.1,0,0.2,0,0.3,0c0.1,0,0.2-0.1,0.2-0.2c0-0.1,0-0.2,0-0.3 C56,48.7,55.9,48.7,55.8,48.6L55.8,48.6z" fill="#B7DDB8"/></g></g><g><g id="change1_12"><path d="M40.4,36.7c1.5,1.7,2.6,3.7,3.4,5.9c0.1,0.3,0.4,0.5,0.8,0.4c0.3-0.1,0.5-0.4,0.4-0.8 c-0.8-2.4-2.1-4.5-3.7-6.4c-0.2-0.3-0.7-0.2-0.9,0C40.1,36.1,40.1,36.4,40.4,36.7L40.4,36.7z" fill="#E3AFD0"/></g></g><g><g id="change1_8"><path d="M11.9,46.7c0.4,1.3,0.8,2.6,1.2,3.9c0.1,0.3,0.4,0.5,0.8,0.4c0.3-0.1,0.5-0.4,0.4-0.8 c-0.4-1.3-0.8-2.6-1.2-3.9c-0.1-0.3-0.4-0.5-0.8-0.4C12,46.1,11.8,46.4,11.9,46.7L11.9,46.7z" fill="#E3AFD0"/></g></g><g><g id="change1_15"><path d="M61.7,36c0.9,1.2,1.7,2.5,2.3,3.8c0.1,0.3,0.6,0.4,0.9,0.2c0.3-0.2,0.4-0.5,0.2-0.9 c-0.7-1.3-1.4-2.6-2.3-3.8c-0.2-0.3-0.5-0.4-0.9-0.2C61.7,35.3,61.5,35.7,61.7,36L61.7,36z" fill="#E3AFD0"/></g></g></svg>